# xmcd CD database file
#
# Track frame offsets:
#	150
#	17655
#	39412
#	69517
#	105007
#	139512
#	169730
#	208562
#	231827
#	254725
#
# Disc length: 3562 seconds
#
# Revision: 0
# Processed by: cddbd v1.5.2PL0 Copyright (c) Steve Scherf et al.
# Submitted via: CDex 1.70beta2
#
DISCID=7d0de80a
DTITLE=Bocian, Michel - Reverence w. Dewey Redman
DYEAR=1994
DGENRE=Jazz
TTITLE0=The Cabeta shuffle
TTITLE1=Home at last
TTITLE2=Easy come easy go
TTITLE3=Improv A
TTITLE4=Rockin' with Pete
TTITLE5=Blue and green
TTITLE6=Miles the Feline
TTITLE7=Improv B
TTITLE8=Ratman
TTITLE9=Reverence
EXTD=YEAR: 1994
EXTT0=
EXTT1=
EXTT2=
EXTT3=
EXTT4=
EXTT5=
EXTT6=
EXTT7=
EXTT8=
EXTT9=
PLAYORDER=
